<svg width="34" height="28" viewBox="0 0 34 28" fill="none" xmlns="http://www.w3.org/2000/svg">
<path d="M0.0889816 27.4909C0.0889816 25.5709 0.0889816 23.7149 0.0889816 21.9229C0.152982 20.0669 0.216981 18.3709 0.280981 16.8349C0.472982 11.3309 1.33698 7.20288 2.87298 4.45088C4.47298 1.63488 7.48098 0.226881 11.897 0.226881L13.049 5.12288C10.553 5.18688 8.95298 6.01888 8.24898 7.61888C7.54498 9.21888 7.19298 11.2669 7.19298 13.7629H13.913V27.4909H0.0889816ZM19.769 27.4909C19.769 25.5709 19.769 23.7149 19.769 21.9229C19.833 20.0669 19.897 18.3709 19.961 16.8349C20.153 11.3309 21.017 7.20288 22.553 4.45088C24.153 1.63488 27.161 0.226881 31.577 0.226881L32.729 5.12288C30.233 5.18688 28.633 6.01888 27.929 7.61888C27.225 9.21888 26.873 11.2669 26.873 13.7629H33.593V27.4909H19.769Z" fill="#7E2832"/>
</svg>
