<svg width="22" height="22" viewBox="0 0 22 22" fill="none" xmlns="http://www.w3.org/2000/svg">
<path d="M14.5907 18.7778C14.5907 20.0051 15.6048 21 16.8558 21C18.1068 21 19.1209 20.0051 19.1209 18.7778C19.1209 17.5505 18.1068 16.5556 16.8558 16.5556C15.6048 16.5556 14.5907 17.5505 14.5907 18.7778Z" fill="#F4EDED"/>
<path d="M4.39767 18.7778C4.39767 20.0051 5.4118 21 6.66278 21C7.91377 21 8.9279 20.0051 8.9279 18.7778C8.9279 17.5505 7.91377 16.5556 6.66278 16.5556C5.4118 16.5556 4.39767 17.5505 4.39767 18.7778Z" fill="#F4EDED"/>
<path d="M16.8558 16.5556C15.6048 16.5556 14.5907 17.5505 14.5907 18.7778C14.5907 20.0051 15.6048 21 16.8558 21C18.1068 21 19.1209 20.0051 19.1209 18.7778C19.1209 17.5505 18.1068 16.5556 16.8558 16.5556ZM16.8558 16.5556H8.12825C7.60585 16.5556 7.34455 16.5556 7.12952 16.4644C6.93987 16.384 6.77529 16.2542 6.65541 16.0891C6.5195 15.9019 6.46582 15.6514 6.35637 15.1503L3.57258 2.4053C3.46313 1.90417 3.40767 1.65362 3.27175 1.46644C3.15187 1.30136 2.98792 1.17157 2.79827 1.09116C2.58324 1 2.32259 1 1.80019 1H1M4.39767 4.33333H18.9773C19.7948 4.33333 20.2033 4.33333 20.4777 4.5004C20.718 4.64674 20.8935 4.87597 20.9703 5.14307C21.0578 5.44799 20.9455 5.83329 20.7189 6.60384L19.1508 11.9372C19.0153 12.3979 18.9475 12.6283 18.8101 12.7993C18.6888 12.9501 18.5288 13.0675 18.3474 13.14C18.1419 13.2222 17.8976 13.2222 17.4088 13.2222H6.35752M6.66278 21C5.4118 21 4.39767 20.0051 4.39767 18.7778C4.39767 17.5505 5.4118 16.5556 6.66278 16.5556C7.91377 16.5556 8.9279 17.5505 8.9279 18.7778C8.9279 20.0051 7.91377 21 6.66278 21Z" stroke="white" stroke-width="2" stroke-linecap="round" stroke-linejoin="round"/>
</svg>
