<svg width="22" height="20" viewBox="0 0 22 20" fill="none" xmlns="http://www.w3.org/2000/svg">
<g clip-path="url(#clip0_1_507)">
<path d="M18.4242 12.8167C17.3479 12.8167 16.3067 12.65 15.3354 12.35C15.0292 12.25 14.6879 12.325 14.4517 12.55L13.0779 14.1917C10.6017 13.0667 8.28291 10.9417 7.04916 8.5L8.75541 7.11667C8.99166 6.88333 9.06166 6.55833 8.9654 6.26667C8.64165 5.34167 8.47541 4.35 8.47541 3.325C8.47541 2.875 8.08166 2.5 7.60916 2.5H4.58166C4.10916 2.5 3.54041 2.7 3.54041 3.325C3.54041 11.0667 10.3042 17.5 18.4242 17.5C19.0454 17.5 19.2904 16.975 19.2904 16.5167V13.6417C19.2904 13.1917 18.8967 12.8167 18.4242 12.8167Z" fill="#F4EDED"/>
</g>
<defs>
<clipPath id="clip0_1_507">
<rect width="21" height="20" fill="white" transform="translate(0.540405)"/>
</clipPath>
</defs>
</svg>
