<svg width="22" height="20" viewBox="0 0 22 20" fill="none" xmlns="http://www.w3.org/2000/svg">
<path d="M7.60985 2.5C5.15563 2.5 3.16541 4.36583 3.16541 6.66667V13.3333C3.16541 15.6342 5.15563 17.5 7.60985 17.5H14.721C17.1752 17.5 19.1654 15.6342 19.1654 13.3333V6.66667C19.1654 4.36583 17.1752 2.5 14.721 2.5H7.60985ZM16.4987 4.16667C16.9894 4.16667 17.3876 4.54 17.3876 5C17.3876 5.46 16.9894 5.83333 16.4987 5.83333C16.0081 5.83333 15.6098 5.46 15.6098 5C15.6098 4.54 16.0081 4.16667 16.4987 4.16667ZM11.1654 5.83333C13.6196 5.83333 15.6098 7.69917 15.6098 10C15.6098 12.3008 13.6196 14.1667 11.1654 14.1667C8.71118 14.1667 6.72096 12.3008 6.72096 10C6.72096 7.69917 8.71118 5.83333 11.1654 5.83333ZM11.1654 7.5C10.4582 7.5 9.77988 7.76339 9.27979 8.23223C8.77969 8.70107 8.49874 9.33696 8.49874 10C8.49874 10.663 8.77969 11.2989 9.27979 11.7678C9.77988 12.2366 10.4582 12.5 11.1654 12.5C11.8726 12.5 12.5509 12.2366 13.051 11.7678C13.5511 11.2989 13.8321 10.663 13.8321 10C13.8321 9.33696 13.5511 8.70107 13.051 8.23223C12.5509 7.76339 11.8726 7.5 11.1654 7.5Z" fill="#F4EDED"/>
</svg>
