<svg width="51" height="50" viewBox="0 0 51 50" fill="none" xmlns="http://www.w3.org/2000/svg">
<ellipse cx="25.6879" cy="25" rx="25.1195" ry="25" fill="#7E2832"/>
<path d="M10.4831 40.26H12.9231V41H9.57309V34.03H10.4831V40.26ZM18.0095 39.45H14.9695L14.4095 41H13.4495L15.9695 34.07H17.0195L19.5295 41H18.5695L18.0095 39.45ZM17.7495 38.71L16.4895 35.19L15.2295 38.71H17.7495ZM26.3878 34.03L23.7578 41H22.7078L20.0778 34.03H21.0478L23.2378 40.04L25.4278 34.03H26.3878ZM28.2956 34.03V41H27.3856V34.03H28.2956ZM35.6065 34.03L32.9765 41H31.9265L29.2965 34.03H30.2665L32.4565 40.04L34.6465 34.03H35.6065ZM40.7243 39.45H37.6843L37.1243 41H36.1643L38.6843 34.07H39.7343L42.2443 41H41.2843L40.7243 39.45ZM40.4643 38.71L39.2043 35.19L37.9443 38.71H40.4643Z" fill="#F4EDED"/>
<path fill-rule="evenodd" clip-rule="evenodd" d="M26.1012 26.3014C26.1142 27.0105 25.3794 27.4656 24.8594 26.9836C22.7508 25.0287 22.2022 21.2029 23.4121 17.4048C24.7038 13.35 27.5834 10.6363 30.6396 10.6189C31.1725 10.6159 31.537 11.136 31.5944 11.6648C31.6385 12.0706 31.7163 12.4825 31.7443 12.8455C31.8528 14.2515 31.4344 15.6407 30.5671 16.7548L27.5359 20.6485C26.5618 21.8996 26.0487 23.4381 26.0777 25.0199L26.1012 26.3014ZM33.7832 11.2173C33.8021 11.1443 33.8798 11.1548 33.9466 11.1896C36.9175 12.7358 37.6781 17.0931 36.2849 21.4667C35.0368 25.3844 32.3083 28.05 29.3673 28.2415C28.7402 28.2824 28.3192 27.5837 28.2995 26.9567C28.2776 26.2562 28.143 25.494 28.1331 24.9547C28.1093 23.6604 28.5292 22.4017 29.3262 21.378L32.3574 17.4843C33.4175 16.1227 33.9288 14.4247 33.7962 12.7063C33.721 11.7314 33.7468 11.358 33.7832 11.2173Z" fill="#F4EDED"/>
<path fill-rule="evenodd" clip-rule="evenodd" d="M22.4239 30.8682C22.9311 31.3735 22.707 32.2108 21.9914 32.1806C19.7067 32.0842 17.4144 30.2581 16.1422 27.5571C14.7551 24.6122 15.0204 21.5594 16.8108 19.8522C17.1913 19.4894 17.8175 19.6159 18.2325 19.9409C18.4375 20.1014 18.6478 20.2542 18.821 20.4067C19.6567 21.1428 20.1563 22.1584 20.227 23.2646L20.4739 27.1306C20.5533 28.3729 21.0756 29.525 21.9582 30.4042L22.4239 30.8682ZM19.2049 18.3817C19.1681 18.3208 19.2261 18.2773 19.2947 18.2583C21.9798 17.5131 24.8269 19.5603 26.3503 22.7946C27.6777 25.6129 27.4929 28.5289 25.9047 30.2715C25.4823 30.7349 24.6673 30.5157 24.1973 30.0982C23.8432 29.7836 23.4505 29.4914 23.198 29.2398C22.4759 28.5205 22.0485 27.5779 21.9836 26.5615L21.7366 22.6954C21.6503 21.3434 21.0396 20.1022 20.0182 19.2025C19.4657 18.7158 19.269 18.4882 19.2049 18.3817Z" fill="#F4EDED"/>
</svg>
