<svg width="22" height="22" viewBox="0 0 22 22" fill="none" xmlns="http://www.w3.org/2000/svg">
<path fill-rule="evenodd" clip-rule="evenodd" d="M14.3333 14.3333L21 21L14.3333 14.3333Z" fill="#F4EDED"/>
<path d="M15.0404 13.6262C14.6499 13.2357 14.0168 13.2357 13.6262 13.6262C13.2357 14.0168 13.2357 14.6499 13.6262 15.0404L15.0404 13.6262ZM20.2929 21.7071C20.6834 22.0976 21.3166 22.0976 21.7071 21.7071C22.0976 21.3166 22.0976 20.6834 21.7071 20.2929L20.2929 21.7071ZM8.77778 15.5556C5.03451 15.5556 2 12.521 2 8.77778H0C0 13.6256 3.92995 17.5556 8.77778 17.5556V15.5556ZM2 8.77778C2 5.03451 5.03451 2 8.77778 2V0C3.92995 0 0 3.92995 0 8.77778H2ZM8.77778 2C12.521 2 15.5556 5.03451 15.5556 8.77778H17.5556C17.5556 3.92995 13.6256 0 8.77778 0V2ZM15.5556 8.77778C15.5556 12.521 12.521 15.5556 8.77778 15.5556V17.5556C13.6256 17.5556 17.5556 13.6256 17.5556 8.77778H15.5556ZM13.6262 15.0404L20.2929 21.7071L21.7071 20.2929L15.0404 13.6262L13.6262 15.0404Z" fill="#FCFCFC"/>
</svg>
