<svg width="22" height="20" viewBox="0 0 22 20" fill="none" xmlns="http://www.w3.org/2000/svg">
<g clip-path="url(#clip0_1_517)">
<path d="M11.2817 1.66675C6.45166 1.66675 2.54041 5.40008 2.54041 10.0001C2.54041 14.6001 6.45166 18.3334 11.2817 18.3334C16.1204 18.3334 20.0404 14.6001 20.0404 10.0001C20.0404 5.40008 16.1204 1.66675 11.2817 1.66675ZM11.2904 16.6667C7.4229 16.6667 4.29041 13.6834 4.29041 10.0001C4.29041 6.31675 7.4229 3.33341 11.2904 3.33341C15.1579 3.33341 18.2904 6.31675 18.2904 10.0001C18.2904 13.6834 15.1579 16.6667 11.2904 16.6667Z" fill="#F4EDED"/>
<path d="M11.4779 5.83325H10.1654V10.8333L14.7592 13.4583L15.4154 12.4333L11.4779 10.2083V5.83325Z" fill="#F4EDED"/>
</g>
<defs>
<clipPath id="clip0_1_517">
<rect width="21" height="20" fill="white" transform="translate(0.540405)"/>
</clipPath>
</defs>
</svg>
