<svg width="23" height="20" viewBox="0 0 23 20" fill="none" xmlns="http://www.w3.org/2000/svg">
<path d="M11.3734 1.6665C6.40271 1.6665 2.37341 5.2481 2.37341 9.6665C2.37341 14.0849 6.40271 17.6665 11.3734 17.6665C16.3441 17.6665 20.3734 14.0849 20.3734 9.6665C20.3734 5.2481 16.3441 1.6665 11.3734 1.6665ZM16.3369 12.8665H15.1588C14.7124 12.8665 14.5711 12.4737 13.7926 11.6665C13.1176 10.9665 12.7684 10.8665 12.5965 10.8665C12.3553 10.8665 12.2734 10.9193 12.2734 11.2401V12.4289C12.2734 12.6953 12.196 12.8665 11.4409 12.8665C10.1944 12.8665 8.78591 12.1161 7.71761 10.8161C6.24341 9.0233 5.97341 7.4641 5.97341 7.1761C5.97341 7.0161 6.03011 6.8665 6.37391 6.8665H7.56281C7.86071 6.8665 7.97501 6.9841 8.08931 7.2937C8.61761 8.8665 9.40511 10.0665 9.80561 10.0665C9.95411 10.0665 10.0234 10.0025 10.0234 9.6505V8.2009C9.97751 7.4537 9.57341 7.3897 9.57341 7.1225C9.57341 6.9937 9.66881 6.8665 9.85241 6.8665H11.944C12.196 6.8665 12.2734 6.9945 12.2734 7.2721V9.3465C12.2734 9.5809 12.475 9.6665 12.5542 9.6665C12.7027 9.6665 12.8422 9.6729 13.1167 9.4161C13.9627 8.5297 14.6971 7.1865 14.6971 7.1865C14.7781 7.0265 14.9149 6.8665 15.2128 6.8665H16.3909C16.6546 6.8665 16.7662 6.9713 16.7734 7.1169C16.7761 7.1673 16.7662 7.2233 16.7455 7.2833C16.597 7.9233 15.0742 9.8241 15.0859 9.8241C15.0211 9.9225 14.9779 9.9929 14.9734 10.0673C14.9689 10.1377 15.0013 10.2113 15.0859 10.3153C15.211 10.4753 15.4846 10.7697 15.7609 11.0673C16.2604 11.6041 16.6609 12.1673 16.7482 12.3977C16.7671 12.4601 16.7752 12.5169 16.7734 12.5673C16.7671 12.7641 16.6096 12.8665 16.3369 12.8665Z" fill="#F4EDED"/>
</svg>
